<svg width="200" height="45" viewBox="0 0 200 45" fill="none" xmlns="http://www.w3.org/2000/svg">
<path d="M0 22.4096V44.8192H22.2718V0C9.95548 0 0 10.0395 0 22.4096Z" fill="#630FA0"/>
<path d="M44.5198 22.4096V44.8192H22.248V0C34.542 0 44.5198 10.0395 44.5198 22.4096Z" fill="#7A1BBE"/>
<path d="M96.3499 22.4096V0H74.0781V44.7967C86.3721 44.7967 96.3499 34.7797 96.3499 22.4096Z" fill="#00AFAA"/>
<path d="M51.8047 22.4096V0H74.0764V44.7968C61.7824 44.7968 51.8047 34.7797 51.8047 22.4096Z" fill="#00E0B7"/>
<path d="M155.455 22.4096V44.8192H177.727V0C165.433 0 155.455 10.0395 155.455 22.4096Z" fill="#630FA0"/>
<path d="M200 22.4096V44.8192H177.729V0C190.023 0 200 10.0395 200 22.4096Z" fill="#7A1BBE"/>
<path d="M125.901 0H103.629V44.7968H125.901V0Z" fill="#B3C4E5"/>
<path d="M148.174 22.4096H125.902V44.8192H148.174V22.4096Z" fill="#A6B4CC"/>
</svg>
